<svg xmlns="http://www.w3.org/2000/svg" xmlns:xlink="http://www.w3.org/1999/xlink" width="38.409" height="44.837" viewBox="0 0 38.409 44.837">
  <defs>
    <linearGradient id="linear-gradient" x1="0.5" y1="-0.394" x2="0.5" y2="1.049" gradientUnits="objectBoundingBox">
      <stop offset="0" stop-color="#d39d5b"/>
      <stop offset="1" stop-color="#ad7a51"/>
    </linearGradient>
  </defs>
  <path id="Path_54" data-name="Path 54" d="M1654.777,524.83c-1.7-3.3-12.969-5.176-16.649-5.176s-14.945,1.878-16.649,5.176-2.555,12-2.555,17.325.853,9.63,2.555,12.9a16.363,16.363,0,0,0,6.842,7.172,22.364,22.364,0,0,0,19.616,0,16.359,16.359,0,0,0,6.841-7.172q2.555-4.9,2.555-12.9C1657.332,536.825,1656.48,528.127,1654.777,524.83Z" transform="translate(-1618.923 -519.654)" fill="url(#linear-gradient)"/>
  <path id="Path_69" data-name="Path 69" d="M1624.811,534.657a4.844,4.844,0,0,1,4.936-4.492c4.6,0,4.924,3.506,4.924,3.506s-2.356-.191-3.944-.191A17.777,17.777,0,0,0,1624.811,534.657Z" transform="translate(-1617.984 -517.978)" fill="#fff"/>
  <path id="Path_70" data-name="Path 70" d="M1647.519,534.657a4.843,4.843,0,0,0-4.934-4.492c-4.6,0-4.925,3.506-4.925,3.506s2.356-.191,3.944-.191A17.777,17.777,0,0,1,1647.519,534.657Z" transform="translate(-1615.936 -517.978)" fill="#fff"/>
  <path id="Path_71" data-name="Path 71" d="M1636.682,541.976c-3.215,0-6.7.631-8.69,1.89,0,4.054,2.609,9.5,8.69,9.5s8.69-5.449,8.69-9.5C1643.384,542.607,1639.9,541.976,1636.682,541.976Z" transform="translate(-1617.478 -516.096)" fill="#fff"/>
</svg>

